<svg id="Layer_1" data-name="Layer 1" xmlns="http://www.w3.org/2000/svg" viewBox="0 0 705.43 756"><defs><style>.cls-1{fill:#ea4c89;}.cls-2{fill:#3f3d56;}.cls-3{fill:#e6e6e6;}.cls-4{fill:#fff;}.cls-5{fill:#6c63ff;}.cls-6{fill:#270f4c;}.cls-7{fill:#2f2e41;}.cls-8{fill:#9f616a;}.cls-9{fill:#ffb8b8;}.cls-10{fill:#ffa000;}</style></defs><title>addDetails</title><path class="cls-1" d="M1298.55,906.86c-16.77,22.46-51.59,24.83-51.59,24.83s-7.62-34.05,9.15-56.51,51.59-24.83,51.59-24.83S1315.32,884.4,1298.55,906.86Z" transform="translate(-604 -177)"/><path class="cls-1" d="M1213.11,915.31c11.07,14.82,34,16.38,34,16.38s5-22.47-6-37.29-34-16.38-34-16.38S1202.05,900.49,1213.11,915.31Z" transform="translate(-604 -177)"/><polygon class="cls-2" points="683.59 756 383.81 756 383.81 753.67 684.03 753.67 683.59 756"/><rect class="cls-3" y="22.1" width="672.26" height="373.35"/><path class="cls-4" d="M641.22,535.23h599V235.15h-599Z" transform="translate(-604 -177)"/><rect class="cls-5" x="1.16" width="671.1" height="33.73"/><rect class="cls-3" x="70.95" y="163.99" width="122.12" height="86.07"/><rect class="cls-3" x="266.34" y="163.99" width="336.13" height="9.3"/><rect class="cls-3" x="266.34" y="203.54" width="336.13" height="9.3"/><rect class="cls-3" x="266.34" y="243.08" width="336.13" height="9.3"/><path class="cls-6" d="M1096,579.61l-3.28,18.86s-15.58,43.47-11.48,84.48,7.38,69.71,7.38,69.71-12.3,103.33-7.38,140.24c0,0,13.12,18,30.34-.82l13.12-136.14,14-96.78L1151,767.42l8.2,123s11.48,12.3,28.7,1.64l-1.64-139.42s14.77-118.1,12.31-127.94-18.87-48.39-18.87-48.39Z" transform="translate(-604 -177)"/><path class="cls-7" d="M1088,894l.82,17.22s-12.5,19.49,3.09,19.49h0c11.27,0,21.45,5,20.12-6.15l-1.88-15.8-3.28-17.22Z" transform="translate(-604 -177)"/><path class="cls-7" d="M1183.05,894l-.82,17.22s12.5,19.49-3.08,19.49h0c-11.27,0-21.46,5-20.13-6.15l1.89-15.8,3.28-17.22Z" transform="translate(-604 -177)"/><circle class="cls-8" cx="530.35" cy="234.08" r="26.24"/><path class="cls-9" d="M1122.87,428.3s3.28,37.72-6.56,43.47,41,3.28,41,3.28-11.48-44.29-10.66-49.21Z" transform="translate(-604 -177)"/><path class="cls-10" d="M1172.49,452.49s-32.81-14.76-78.74,0c0,0-20.09,5.33-22.55,11.89s27.48,81.61,24.19,94.73a71.47,71.47,0,0,0-1.64,24.6s72.18-9.84,89.4-2.46c0,0-6.56-21.32-4.92-36.08s15.58-83.66,15.58-83.66S1186.43,454.13,1172.49,452.49Z" transform="translate(-604 -177)"/><path class="cls-8" d="M1201.19,648.05s-12.3,37.72.82,38.54,7.38-28.7,7.38-28.7l-1.64-9.84Z" transform="translate(-604 -177)"/><path class="cls-10" d="M1176.59,466.43l17.22-4.92s9.84,7.38,9.84,17.23-1.64,73-1.64,73l12.3,94.31-18.86,6.56-22.14-101.69Z" transform="translate(-604 -177)"/><path class="cls-8" d="M1066.69,648.05s12.3,37.72-.82,38.54-7.38-28.7-7.38-28.7l1.64-9.84Z" transform="translate(-604 -177)"/><path class="cls-10" d="M1091.29,466.43l-17.22-4.92s-9.84,7.38-9.84,17.23,1.64,73,1.64,73L1053.57,646l18.86,6.56,22.14-101.69Z" transform="translate(-604 -177)"/><path class="cls-7" d="M1145.83,372.53s-23-4.1-27.88,26.24-2.46,41.83-10.66,45.11-10.67,7.38-9,13.94,7.38,9-.83,21.33,18,9,39.37,18.86,70.53-4.1,64-15.58-17.22-6.56-12.3-19.69,6.56-15.58,0-23.78S1191.76,379.91,1145.83,372.53Z" transform="translate(-604 -177)"/></svg>