<svg id="Layer_1" data-name="Layer 1" xmlns="http://www.w3.org/2000/svg" viewBox="0 0 1094 668.32"><defs><style>.cls-1{fill:#ea4c89;}.cls-2{fill:#6c63ff;}.cls-3{fill:#2f2e41;}.cls-4{fill:#3f3d56;}.cls-5{fill:#ffb8b8;}.cls-6{fill:#270f4c;}.cls-7{fill:#ffa000;}</style></defs><title>choosetemplate</title><path class="cls-1" d="M632.43,810.1c9,33.11,39.64,53.62,39.64,53.62s16.16-33.18,7.2-66.29-39.64-53.63-39.64-53.63S623.47,777,632.43,810.1Z" transform="translate(-464 -230)"/><path class="cls-2" d="M645.59,803c24.58,23.93,27.59,60.71,27.59,60.71s-36.86-2-61.44-25.94S584.16,777,584.16,777,621,779.05,645.59,803Z" transform="translate(-464 -230)"/><rect class="cls-3" x="118.19" y="665.19" width="866" height="3.14"/><path class="cls-4" d="M683.64,896.23H649.12V861.72h34.52Zm-31.38-2.09h29.28V864.85H652.26Z" transform="translate(-464 -230)"/><rect class="cls-4" y="27.19" width="293.89" height="293.89"/><path class="cls-2" d="M757.89,329.38v6.75a30.51,30.51,0,0,1-10.49-11.9c-3.92-8-3.8-17.25-3.67-26.18.14-10.63.28-20.64-6.46-27.17-7.41-7.16-19.27-6.15-30.74-5.18l-4,.34c-11.5.87-24.32-2-30.55-9.89h7.77c5.69,3.83,14.4,5.17,22.39,4.57,1.3-.09,2.63-.21,4-.32,12.07-1,25.76-2.2,34.89,6.65,8.41,8.12,8.25,19.79,8.09,31.07-.13,8.31-.23,16.89,3.14,23.77A24.16,24.16,0,0,0,757.89,329.38Z" transform="translate(-464 -230)"/><path class="cls-2" d="M757.89,376.1V384a34.12,34.12,0,0,0-4.32-4.67c-9.15-8.07-22.29-9.84-35-11.58-1.65-.21-3.27-.44-4.88-.67-20.59-3-33.35-10-39-21.58-3.92-8-3.79-17.25-3.67-26.19.14-10.62.28-20.64-6.45-27.16C657.17,285,645.3,286,633.83,287l-4,.34c-14.79,1.12-31.76-4-34.08-17.86-.8-4.75.39-9.11,2.14-13.31h5.82c-2,4.22-3.41,8.3-2.71,12.43,1.75,10.56,16,14.36,28.44,13.42,1.29-.09,2.62-.21,4-.32,12.08-1,25.76-2.2,34.89,6.65,8.41,8.12,8.25,19.79,8.09,31.06-.12,8.32-.23,16.9,3.14,23.78,4.82,9.86,16.26,16,35,18.65l4.82.68c13.48,1.82,27.43,3.72,37.81,12.85C757.36,375.58,757.63,375.83,757.89,376.1Z" transform="translate(-464 -230)"/><path class="cls-2" d="M757.89,509.4v10.92c-6.4-6.81-11.75-16.15-15.85-27.84-.87-2.48-1.7-5-2.53-7.55-4.59-13.88-9.35-28.23-20.66-37.39-12.09-9.79-29.41-12-46.17-14.05q-3.23-.39-6.42-.81c-27.16-3.6-44-12.17-51.45-26.17-5.18-9.74-5-20.94-4.86-31.78.19-12.87.39-25-8.51-32.94-9.77-8.69-25.43-7.47-40.55-6.28l-5.31.41c-19.52,1.35-41.91-4.86-45-21.65-1.51-8.23,2.34-15.52,6-22.57,2.12-4,4.14-7.89,5.17-11.85,2.17-8.14-.51-17.3-6.45-23.7h8.69a31.24,31.24,0,0,1,4.59,25.23c-1.22,4.63-3.49,8.95-5.69,13.14-3.39,6.42-6.56,12.48-5.45,18.69,2.34,12.8,21.09,17.41,37.52,16.27l5.23-.39c15.93-1.26,34-2.66,46,8.07,11.08,9.84,10.87,24,10.66,37.66-.14,10.09-.3,20.5,4.13,28.85,6.37,11.93,21.47,19.34,46.17,22.62,2.09.29,4.22.55,6.35.82,17.8,2.22,36.19,4.5,49.86,15.58,12.82,10.39,17.87,25.63,22.73,40.36.83,2.52,1.67,5,2.52,7.46A83.91,83.91,0,0,0,757.89,509.4Z" transform="translate(-464 -230)"/><path class="cls-2" d="M464,375.6c8.09,9.79,25.23,13.41,40.6,12.35l5.31-.41c15.12-1.19,30.78-2.41,40.55,6.27,8.9,7.91,8.7,20.08,8.51,32.95-.16,10.83-.32,22,4.86,31.77,7.46,14,24.29,22.57,51.45,26.17,2.13.29,4.27.55,6.42.82,16.75,2.09,34.08,4.25,46.17,14,11.31,9.17,16.06,23.51,20.66,37.4.83,2.53,1.66,5.07,2.53,7.55.8,2.29,1.65,4.47,2.54,6.58h7.59c-1.33-2.89-2.47-5.78-3.44-8.55q-1.28-3.69-2.52-7.46c-4.86-14.74-9.91-30-22.73-40.36-13.67-11.08-32.06-13.37-49.86-15.58-2.13-.27-4.26-.54-6.35-.82-24.7-3.28-39.8-10.69-46.17-22.62-4.43-8.36-4.27-18.76-4.13-28.85.21-13.67.42-27.82-10.66-37.66-12.05-10.73-30.1-9.33-46-8.07-1.75.12-3.51.27-5.23.39-16.43,1.13-35.18-3.48-37.52-16.28-1.11-6.2,2.06-12.27,5.45-18.69,2.2-4.18,4.46-8.51,5.69-13.13,3.33-12.66-2.29-26.69-13.69-34.35v8.69c6.22,6.42,9.06,15.8,6.86,24.13-1,3.95-3.05,7.8-5.18,11.84-.56,1.09-1.13,2.15-1.68,3.25Z" transform="translate(-464 -230)"/><path class="cls-2" d="M594.2,551.09h-7.36c-.39-1.15-.76-2.32-1.15-3.5-4.59-13.88-9.35-28.22-20.66-37.39-12.09-9.79-29.41-11.95-46.17-14-2.15-.27-4.29-.53-6.42-.82-24-3.17-39.91-10.23-48.44-21.47V456.23a33.6,33.6,0,0,0,3.28,10.1c6.37,11.94,21.47,19.35,46.17,22.63,2.09.28,4.22.55,6.35.81,17.8,2.22,36.19,4.51,49.86,15.59,12.82,10.39,17.87,25.62,22.73,40.36C593,547.52,593.58,549.31,594.2,551.09Z" transform="translate(-464 -230)"/><rect class="cls-4" x="398.48" y="27.19" width="293.89" height="293.89"/><path class="cls-2" d="M1004.33,277.42A94,94,0,0,1,862.48,358.3V256.15H1001.9A92.84,92.84,0,0,1,1004.33,277.42Z" transform="translate(-464 -230)"/><circle class="cls-2" cx="616.84" cy="106.27" r="56.74"/><circle class="cls-2" cx="489.17" cy="226.84" r="40.78"/><path class="cls-2" d="M1157.42,502.86v48.23h-58.35a40.78,40.78,0,0,1,58.35-48.23Z" transform="translate(-464 -230)"/><circle class="cls-2" cx="592.01" cy="225.07" r="10.64"/><rect class="cls-4" x="800.11" y="27.19" width="293.89" height="293.89"/><path class="cls-2" d="M1407.39,256.15V376.42H1264.11v7.33h150.6V256.15Z" transform="translate(-464 -230)"/><path class="cls-2" d="M1545.82,551.09,1558,533.76V521.44l-20.85,29.65Zm-49.47-126.92L1431.08,517l48.5,34.1h12.32L1441,515.27l57.11-81.22L1558,476.19v-8.67Z" transform="translate(-464 -230)"/><path class="cls-2" d="M1387.58,412.14,1350,449.75l37.61,37.61,37.61-37.61ZM1360,449.75l27.59-27.59,27.59,27.59-27.59,27.59Z" transform="translate(-464 -230)"/><circle class="cls-1" cx="144.06" cy="26.72" r="26.72"/><circle class="cls-1" cx="556.82" cy="26.72" r="26.72"/><circle class="cls-1" cx="950.87" cy="26.72" r="26.72"/><circle class="cls-5" cx="993.43" cy="386.95" r="25.38" transform="translate(-24.01 1068.18) rotate(-80.01)"/><path class="cls-5" d="M980.08,399s6.68,34.73,4,41.4,37.41-2.67,37.41-2.67-8-34.73-6.68-42.74S980.08,399,980.08,399Z" transform="translate(-464 -230)"/><polygon class="cls-5" points="472 289.2 474.67 325.26 487.93 381.9 492.03 397.39 498.71 373.35 492.03 318.58 489.76 293.93 472 289.2"/><path class="cls-5" d="M1075.85,513.85v37.4s-4,48.09-12,60.11-10.68-48.08-10.68-48.08l6.28-44.08Z" transform="translate(-464 -230)"/><path class="cls-6" d="M957.37,630.06s-6.68,8-1.34,89.5-2.67,140.26,14.7,140.26c0,0-5.35,17.36,9.35,18.7s21.37,2.67,22.7-1.34,4-22.7,0-22.7c0,0,0,5.34,2.68-16s2.67-122.9,9.35-136.25l21.37,49.42s0,22.71,4,33.39,10.68,72.14,10.68,72.14l-1.33,9.35s32.06,5.34,33.39,0,1.34-13.36,0-16-1.33-2.67,1.34-8,2.67-9.35,1.33-13.35-1.33-90.84-1.33-90.84-2.67-105.52-18.7-110.87S957.37,630.06,957.37,630.06Z" transform="translate(-464 -230)"/><path class="cls-3" d="M974.73,867.83l-10.68,18.7s-16.7-6-13.36,9.35c28.72,2,48.76-.66,48.76-.66s6.67,2.67,8-1.34-3.34-18-7.35-18S974.73,867.83,974.73,867.83Z" transform="translate(-464 -230)"/><path class="cls-3" d="M1052.21,862.49s-10.69,24-6.68,25.38,40.07,6.68,42.74,8,16,2.68,17.37-5.34-6.68-10.69-6.68-10.69-14.69-2.67-18.7-16S1052.21,862.49,1052.21,862.49Z" transform="translate(-464 -230)"/><path class="cls-7" d="M1024.16,433.71s-36.07-6.68-44.08,0-41.41,20-41.41,26.71S956,532.55,956,532.55s-9.35,98.85,0,101.52,25.38-5.34,44.08,4,72.14-8,72.14-8-20-85.48-14.7-101.51,9.35-70.8,9.35-70.8S1044.19,433.71,1024.16,433.71Z" transform="translate(-464 -230)"/><path class="cls-7" d="M948,456.41l-9.35,2.68s-20,62.78-12,65.45,30.72,8,33.39,8S948,456.41,948,456.41Z" transform="translate(-464 -230)"/><path class="cls-7" d="M1045.53,449.74l21.37,8s28,52.09,21.37,58.77-36.06,13.36-36.06,13.36Z" transform="translate(-464 -230)"/><path class="cls-3" d="M993.17,355.61a14.2,14.2,0,0,0-6.35.28,16.45,16.45,0,0,0-4.51,3,53.75,53.75,0,0,1-7.72,5.11c-2.16,1.17-4.49,2.26-6,4.2a13.14,13.14,0,0,0-1.69,3.21,38.38,38.38,0,0,0-2,20.91,9.44,9.44,0,0,0,.89,2.88c1.39,2.55,4.45,3.56,7,4.9,4.9,2.55,8.62,6.84,12.64,10.62a24,24,0,0,0,5,3.85c5.73,3.13,12.75,2.11,19.19,1a3.46,3.46,0,0,0,3.45-3.47v0l5.09-22.87a37.23,37.23,0,0,0,1.3-10.4c-.36-5.55-3.36-13.24-7.44-17.18C1007.3,357,999.37,356.26,993.17,355.61Z" transform="translate(-464 -230)"/><circle class="cls-1" cx="356.77" cy="635.87" r="10.54"/><path class="cls-3" d="M820.77,896.32a30.45,30.45,0,1,1,30.45-30.45A30.45,30.45,0,0,1,820.77,896.32Zm0-58.56a28.11,28.11,0,1,0,28.11,28.11h0A28.14,28.14,0,0,0,820.77,837.76Z" transform="translate(-464 -230)"/><circle class="cls-1" cx="869.71" cy="637.2" r="10.54"/><path class="cls-3" d="M1333.71,897.66a30.46,30.46,0,1,1,30.45-30.46A30.45,30.45,0,0,1,1333.71,897.66Zm0-58.57a28.11,28.11,0,1,0,28.11,28.11h0A28.15,28.15,0,0,0,1333.71,839.09Z" transform="translate(-464 -230)"/><circle class="cls-1" cx="869.71" cy="578.43" r="10.54"/><path class="cls-3" d="M1333.71,838.88a30.45,30.45,0,1,1,30.45-30.45A30.45,30.45,0,0,1,1333.71,838.88Zm0-58.56a28.11,28.11,0,1,0,28.11,28.11h0A28.14,28.14,0,0,0,1333.71,780.32Z" transform="translate(-464 -230)"/></svg>