<svg id="Layer_1" data-name="Layer 1" xmlns="http://www.w3.org/2000/svg" viewBox="0 0 1011.06 871.45"><defs><style>.cls-1,.cls-11{fill:#3f3d56;}.cls-2,.cls-3,.cls-4{fill:#6c63ff;}.cls-11,.cls-3,.cls-6,.cls-9{opacity:0.5;}.cls-10,.cls-11,.cls-15,.cls-3,.cls-4,.cls-6,.cls-7,.cls-9{isolation:isolate;}.cls-10,.cls-4,.cls-7{opacity:0.2;}.cls-5,.cls-6,.cls-7{fill:#2f2e41;}.cls-10,.cls-8,.cls-9{fill:#ff6584;}.cls-12{fill:#f2f2f2;}.cls-13{fill:#ea4c89;}.cls-14{fill:none;stroke:#3f3d56;stroke-miterlimit:10;stroke-width:2px;}.cls-15{opacity:0.1;}.cls-16{fill:#ffb9b9;}.cls-17{fill:#270f4c;}.cls-18{fill:#ffa000;}</style></defs><title>convert</title><rect class="cls-1" x="872.05" y="98.93" width="197.89" height="333.29" transform="translate(-30.97 953.27) rotate(-67.8)"/><circle class="cls-2" cx="526" cy="134.07" r="74.99"/><rect class="cls-2" x="1026.61" y="221.24" width="25" height="25" transform="translate(40.87 996.53) rotate(-67.8)"/><rect class="cls-3" x="1055.54" y="233.05" width="25" height="25" transform="translate(47.94 1030.66) rotate(-67.8)"/><rect class="cls-4" x="1084.47" y="244.85" width="25" height="25" transform="translate(55.01 1064.79) rotate(-67.8)"/><rect class="cls-5" x="1014.8" y="250.17" width="25" height="25" transform="translate(6.74 1003.6) rotate(-67.8)"/><rect class="cls-6" x="1043.73" y="261.98" width="25" height="25" transform="translate(13.81 1037.73) rotate(-67.8)"/><rect class="cls-7" x="1072.66" y="273.78" width="25" height="25" transform="translate(20.88 1071.86) rotate(-67.8)"/><rect class="cls-8" x="1003" y="279.1" width="25" height="25" transform="translate(-27.39 1010.67) rotate(-67.8)"/><rect class="cls-9" x="1031.93" y="290.91" width="25" height="25" transform="translate(-20.32 1044.8) rotate(-67.8)"/><rect class="cls-10" x="1060.86" y="302.71" width="25" height="25" transform="translate(-13.25 1078.93) rotate(-67.8)"/><path class="cls-11" d="M943.58,175.64,886.91,314.5c38.35,15.65,84.05-2,99.7-40.31S981.92,191.28,943.58,175.64Z" transform="translate(-389.25 -111)"/><path class="cls-12" d="M616.32,328.76l-55.61,90.88A68.73,68.73,0,0,1,489,536.86l-59.12,96.63,570.37,349,186.44-304.73Z" transform="translate(-389.25 -111)"/><path class="cls-2" d="M1389.26,748.18c0,23.4-13.92,31.58-31.08,31.58l-1.19,0c-.79,0-1.58,0-2.36-.11-15.49-1.09-27.52-9.68-27.52-31.45,0-22.52,28.78-50.94,30.94-53h0l.12-.12S1389.26,724.78,1389.26,748.18Z" transform="translate(-389.25 -111)"/><path class="cls-1" d="M1357.6,776.18l10.82-15.88-10.82,17.62v1.82s-2.19,0-3-.11l1.23-23.41V756l0,0,.11-2.22-11.42-17.66,11.46,16,0,.47.92-17.69-9.78-18.26,9.9,15.15,1-36.67-.45-.13v29l10-11.46-9,13.95v15.84l8-15.2-10.13,17.53v8.81l14-21.16-13,24.23Z" transform="translate(-389.25 -111)"/><circle class="cls-13" cx="83.47" cy="500.08" r="12.22"/><line class="cls-14" x1="179.93" y1="633.51" x2="179.93" y2="493.95"/><circle class="cls-1" cx="179.77" cy="493.96" r="19.67"/><path class="cls-1" d="M530.28,682.84c-28.41,43.58-20.63,99-20.63,99S563.5,766.61,591.92,723s20.62-99,20.62-99S558.69,639.27,530.28,682.84Z" transform="translate(-389.25 -111)"/><path class="cls-2" d="M509.5,781.33s-.69-.11-2-.37c-1-.21-2.42-.5-4.12-.91-15.26-3.6-55.84-15.76-82.36-47.74-33.2-40-31.8-96-31.8-96s50.76,8.24,84.21,44.2q2.17,2.33,4.23,4.81c28.89,34.84,31.58,81.72,31.79,93.31C509.52,780.38,509.5,781.33,509.5,781.33Z" transform="translate(-389.25 -111)"/><path class="cls-14" d="M489,682.84c28.41,43.58,20.62,99,20.62,99S455.8,766.61,427.39,723s-20.63-99-20.63-99S460.61,639.27,489,682.84Z" transform="translate(-389.25 -111)"/><path class="cls-15" d="M509.49,778.65c-.75.9-1.41,1.68-1.95,2.31-1.21,1.37-1.89,2.1-1.89,2.1s-.84-1-2.23-3c-7.68-10.7-32.36-48.74-30.46-92.68q.15-3.45.51-6.84,2.17,2.33,4.23,4.81C506.59,720.18,509.28,767.06,509.49,778.65Z" transform="translate(-389.25 -111)"/><path class="cls-2" d="M551.62,690.55c-2.24,52-40.82,92.51-40.82,92.51s-34.94-43.72-32.69-95.69,40.82-92.51,40.82-92.51S553.87,638.58,551.62,690.55Z" transform="translate(-389.25 -111)"/><line class="cls-14" x1="121.55" y1="670.58" x2="130.03" y2="485.98"/><path class="cls-1" d="M394.2,776.8v201h90.09c0-63.28,35.9-114.57,80.2-114.57s80.19,51.29,80.19,114.57h61.45c0-63.28,35.91-114.57,80.2-114.57s80.2,51.29,80.2,114.57H928c0-63.28,35.9-114.57,80.19-114.57s80.2,51.29,80.2,114.57h61.45c0-63.28,35.9-114.57,80.2-114.57s80.19,51.29,80.19,114.57h90.09v-201Z" transform="translate(-389.25 -111)"/><circle class="cls-13" cx="142.35" cy="366.27" r="44.79"/><circle class="cls-5" cx="536.18" cy="279.75" r="30.6"/><path class="cls-16" d="M910.82,406.21S900.85,428.29,898,429s23.5,13.53,23.5,13.53,5-27.06,7.12-28.49S910.82,406.21,910.82,406.21Z" transform="translate(-389.25 -111)"/><path class="cls-15" d="M910.82,406.21S900.85,428.29,898,429s23.5,13.53,23.5,13.53,5-27.06,7.12-28.49S910.82,406.21,910.82,406.21Z" transform="translate(-389.25 -111)"/><polygon class="cls-16" points="462.47 476.07 443.96 528.05 463.9 535.88 498.07 468.24 462.47 476.07"/><path class="cls-16" d="M916.51,588.49s37,52,39.17,52.69,17.09-12.1,17.09-12.1-18.52-44.86-24.21-47S916.51,588.49,916.51,588.49Z" transform="translate(-389.25 -111)"/><path class="cls-5" d="M830.36,629.79,801.16,706s2.14,4.27,0,5S794,723.07,794,723.78s-5,1.42-5,3.56-4.27,19.23-4.27,19.23,7.83,17.08,12.81,12.1,7.12-14.95,7.12-14.95l7.13-18.52s-.72-10,4.27-11.39S824,694.59,824,694.59s7.83-7.84,9.26-10,26.34-39.88,24.21-40.59S830.36,629.79,830.36,629.79Z" transform="translate(-389.25 -111)"/><path class="cls-5" d="M951.4,639.76l21.37-14.24s37,67.64,37,69.07-1.42,5.69,0,7.12,13.53,24.21,21.36,26.34,9.26,10.68,2.85,12.11-15,5-17.09,0a77.43,77.43,0,0,0-4.27-8.55s-7.12,2.14-7.83.71a64.91,64.91,0,0,1-2.14-6.4s-5.7-10-5.7-13.53a4.44,4.44,0,0,0-3.56-4.27s-7.83-18.52-12.81-21.37-9.26-17.08-9.26-17.08Z" transform="translate(-389.25 -111)"/><circle class="cls-16" cx="925.77" cy="401.94" r="20.65" transform="translate(-8.52 1140.37) rotate(-80.78)"/><path class="cls-17" d="M864.54,527.26s-19.94,64.79-15.67,64.79,103.25,2.85,106.81-2.84-22.08-46.29-23.5-47S864.54,527.26,864.54,527.26Z" transform="translate(-389.25 -111)"/><path class="cls-16" d="M833.92,357.79,812.56,325s5.28-34.36-1.84-28-9.37,32.29-9.37,32.29l24.74,37.67Z" transform="translate(-389.25 -111)"/><path class="cls-16" d="M1027.59,417.6l19.23-1.42S1069.6,392,1071,399.8s-18.52,24.93-18.52,24.93l-26.34,2.84Z" transform="translate(-389.25 -111)"/><path class="cls-18" d="M886.84,424.73V417.6s-18.52-12.1-17.8-14.24-1.43-3.56-1.43-3.56-2.14-2.84-2.14-3.56-2.84-1.42-2.84-1.42l-17.8-20.65s-10-19.94-12.11-19.22-13.53,5-12.1,7.83,41.29,64.08,41.29,64.08,2.14,13.53,5.7,13.53S886.84,424.73,886.84,424.73Z" transform="translate(-389.25 -111)"/><path class="cls-18" d="M935,433.27s15.66-.71,16.37,0,10.68,0,10.68,0,27.06-6.41,29.2-8.54,37.74-11.4,39.16-7.13,5,12.82,1.42,14.25-99.68,25.63-99.68,25.63Z" transform="translate(-389.25 -111)"/><circle class="cls-5" cx="525.48" cy="247.54" r="12.66"/><path class="cls-5" d="M897.84,351.68a12.67,12.67,0,0,1,11.34-12.6q-.66-.06-1.32-.06a12.66,12.66,0,1,0,0,25.32h0q.66,0,1.32-.06A12.67,12.67,0,0,1,897.84,351.68Z" transform="translate(-389.25 -111)"/><ellipse class="cls-5" cx="539.74" cy="273.26" rx="21.11" ry="12.66"/><path class="cls-18" d="M904.77,417.25s-6.41,5-7.84,5.7-10-6.41-11.39-6.41S865.6,437.9,865.6,437.9s3.44,4,0,24.21c-1.29,7.59-3.85,40.05-3.85,44.33s-14,14.77-1.13,24,74,19.23,74.76,13.53-7.12-20.65-3.56-27.77,3.56-33.46,3.56-33.46L939.66,455l3.56-22.08s-16.74-4.62-18.16-4.62S917.23,438.25,904.77,417.25Z" transform="translate(-389.25 -111)"/></svg>