<svg id="Layer_1" data-name="Layer 1" xmlns="http://www.w3.org/2000/svg" viewBox="0 0 1067.39 748.11"><defs><style>.cls-1{fill:#d0cde1;}.cls-2{fill:#3f3d56;}.cls-3{fill:#ffb9b9;}.cls-4{fill:#270f4c;}.cls-5{fill:#2f2e41;}.cls-6{fill:#ffa000;}.cls-7{fill:#575a89;}.cls-8{fill:#6c63ff;}.cls-9{fill:#ea4c89;}</style></defs><title>frontpage</title><path class="cls-1" d="M1572.39,838.91H1141.08c14.45-73.77,13.11-151.85,0-233.14h431.31C1561.44,688.47,1561.1,766.34,1572.39,838.91Z" transform="translate(-505 -199.89)"/><rect class="cls-2" x="800.88" y="481.87" width="215.11" height="6.44"/><rect class="cls-2" x="800.88" y="499.91" width="215.11" height="6.44"/><rect class="cls-2" x="800.88" y="519.23" width="215.11" height="6.44"/><rect class="cls-2" x="800.88" y="538.55" width="215.11" height="6.44"/><rect class="cls-2" x="800.88" y="556.58" width="215.11" height="6.44"/><rect class="cls-2" x="687.53" y="487.03" width="70.84" height="70.84"/><path class="cls-2" d="M985.9,605.55h0a80.4,80.4,0,0,1,80.4,80.4v153H752.53C752.53,710,857,605.55,985.9,605.55Z" transform="translate(-505 -199.89)"/><path class="cls-1" d="M628.54,840.2H508a808.39,808.39,0,0,0,0-136.53H628.54C621.91,750.43,621.52,796,628.54,840.2Z" transform="translate(-505 -199.89)"/><rect class="cls-2" x="20.31" y="530.82" width="87.59" height="6.44"/><rect class="cls-2" x="20.31" y="548.85" width="87.59" height="6.44"/><rect class="cls-2" x="20.31" y="568.18" width="87.59" height="6.44"/><rect class="cls-2" x="20.31" y="587.5" width="87.59" height="6.44"/><rect class="cls-2" x="20.31" y="605.53" width="87.59" height="6.44"/><rect class="cls-2" y="637.73" width="1065.23" height="2.58"/><polygon class="cls-3" points="271.04 622.28 281.22 676.61 325.37 642.65 299.05 611.24 271.04 622.28"/><polygon class="cls-3" points="534.21 627.37 524.02 681.7 479.87 647.75 501.1 614.64 534.21 627.37"/><path class="cls-4" d="M871.12,520l-25.47,27.16s-134.13,59.43-134.13,90,32.26,163,45.84,173.19A59.11,59.11,0,0,1,776,834.06l37.35-18.68s-3.4-10.19,0-15.28,0-8.49,0-8.49-5.1,1.7-3.4-3.4,1.7-6.79,0-8.49-6.79-17-6.79-17,1.7-61.12-22.07-83.19c0,0,110.36-32.26,123.94-54.33s17-101.88,17-101.88Z" transform="translate(-505 -199.89)"/><path class="cls-5" d="M792.53,856.13s-3.4-18.68-23.77-13.58v22.07L750.08,902s-39.05,44.15-3.39,40.75,56-25.47,56-35.66,25.46-25.46,25.46-25.46,27.17-28.87,15.28-39.05S820,815.08,819.83,823.72,792.53,856.13,792.53,856.13Z" transform="translate(-505 -199.89)"/><path class="cls-4" d="M944.13,508.06l25.46,44.15s134.14,59.42,134.14,90-32.26,163-45.85,173.18a59.08,59.08,0,0,0-18.67,23.77l-37.36-18.68s3.4-10.18,0-15.28,0-8.49,0-8.49,5.1,1.7,3.4-3.39-1.7-6.79,0-8.49,6.79-17,6.79-17-1.7-61.13,22.07-83.2c0,0-120.55-42.44-134.13-64.52-17.4-28.27-4.68-144.35-8.49-105.27Z" transform="translate(-505 -199.89)"/><path class="cls-5" d="M1021.92,861.22s3.4-18.67,23.77-13.58v22.07l18.68,37.35s39.05,44.15,3.4,40.75-56-25.46-56-35.65-25.47-25.47-25.47-25.47S959.1,857.83,971,847.64s23.49-27.46,23.63-18.83S1021.92,861.22,1021.92,861.22Z" transform="translate(-505 -199.89)"/><circle class="cls-3" cx="447.61" cy="61.98" r="44.14"/><path class="cls-3" d="M922.05,282.24s-1.7,35.66-23.77,45.85,35.66,45.84,35.66,45.84l42.44-22.07s-10.18-49.24-1.69-59.43S922.05,282.24,922.05,282.24Z" transform="translate(-505 -199.89)"/><path class="cls-1" d="M983.18,328.09s-59.15,40.33-77.12-5.3c0,0-43.43,17.18-41.74,29.07s-3.39,174.88-3.39,174.88,71.31,20.37,91.68,0S983.18,328.09,983.18,328.09Z" transform="translate(-505 -199.89)"/><path class="cls-6" d="M971.37,312.92l6.71,6.68s71.31,30.56,69.62,47.54-34,96.78-34,96.78-17,61.12-13.58,78.1,8.48,22.07,5.09,27.17,0,15.28,0,18.67-20.38,17-20.38,17-32.26-28.86-44.14-34-20.38-44.14-11.89-78.1,10.19-107,10.19-107l23.77-35.66S963,324.91,971.37,312.92Z" transform="translate(-505 -199.89)"/><path class="cls-6" d="M916.8,306s-13.42-1.69-16.82,6.8S838.86,340,838.86,346.76s17,91.69,17,91.69l3.39,49.24-30.56,22.07s6.79,22.07-1.7,30.56-18.68,30.56-8.49,34,73-20.37,74.71-45.84-5.09-44.15,6.79-62.82,13.58-91.69,13.58-91.69Z" transform="translate(-505 -199.89)"/><path class="cls-5" d="M993.84,223.78a51,51,0,0,0-29-22.17L956,208.7l3.45-8.27a47.56,47.56,0,0,0-8.76-.51l-8,10.26,3.3-9.9A50.44,50.44,0,0,0,911.15,221c-10.16,14.64-11.87,35-1.88,49.76,2.74-8.43,6.06-16.34,8.81-24.76a25.18,25.18,0,0,0,6.49,0l3.34-7.78.93,7.45c10.34-.9,25.67-2.88,35.47-4.69l-.95-5.72,5.7,4.76c3-.7,4.79-1.32,4.64-1.8,7.29,11.75,16.21,19.26,23.5,31C1000,252.68,1003.15,238.9,993.84,223.78Z" transform="translate(-505 -199.89)"/><ellipse class="cls-3" cx="488.36" cy="63.67" rx="3.57" ry="5.94"/><path class="cls-2" d="M975,565.84H898.52a7.26,7.26,0,0,1-7.26-7.26h0l-3.38-100.11a7.27,7.27,0,0,1,7.27-7.27H978.4a7.27,7.27,0,0,1,7.26,7.27h0l-3.37,100.11a7.26,7.26,0,0,1-7.26,7.26Z" transform="translate(-505 -199.89)"/><circle class="cls-1" cx="431.77" cy="281.97" r="6.76"/><path class="cls-3" d="M1005.7,519.73s-67.78,23.23-51,38S1016.07,536,1016.07,536Z" transform="translate(-505 -199.89)"/><path class="cls-7" d="M1020.53,357s25.47-5.09,32.26,17,40.75,103.57,30.56,115.46-47.54,44.14-59.42,50.93-17,6.79-17,6.79l-15.28,6.8-5.1-39.06L1004,504.53l26.72-21.94-15.28-45.84Z" transform="translate(-505 -199.89)"/><path class="cls-3" d="M869,507.84s67.78,23.24,51,38-61.39-21.74-61.39-21.74Z" transform="translate(-505 -199.89)"/><path class="cls-7" d="M854.14,345.07s-25.47-5.1-32.26,17S781.13,465.62,791.32,477.5s47.54,44.15,59.42,50.94,17,6.79,17,6.79L883,542l5.1-39-17.43-10.32L844,470.71l24.62-60.28Z" transform="translate(-505 -199.89)"/><path class="cls-8" d="M601.87,805.92,659.18,788a209.91,209.91,0,0,0-21.41-68.34l-57.31,18A128.88,128.88,0,0,1,601.87,805.92Z" transform="translate(-505 -199.89)"/><path class="cls-9" d="M1173.73,810.58h60.5a211.56,211.56,0,0,0,0-72.14h-60.5A129.92,129.92,0,0,1,1173.73,810.58Z" transform="translate(-505 -199.89)"/><path class="cls-6" d="M1450,823.46h60.5a211.56,211.56,0,0,0,0-72.14H1450A129.74,129.74,0,0,1,1450,823.46Z" transform="translate(-505 -199.89)"/></svg>