<svg xmlns="http://www.w3.org/2000/svg" xmlns:xlink="http://www.w3.org/1999/xlink" viewBox="0 0 746.93 543.9"><defs><style>.cls-1,.cls-8{isolation:isolate;}.cls-2{fill:#e94d89;}.cls-3,.cls-4{fill:#f9a01b;}.cls-10,.cls-11,.cls-12,.cls-13,.cls-14,.cls-15,.cls-16,.cls-4,.cls-9{fill-rule:evenodd;}.cls-5{fill:url(#linear-gradient);}.cls-6{fill:url(#Bronze);}.cls-7{fill:#010101;}.cls-13,.cls-17,.cls-8{fill:#fff;}.cls-8{opacity:0.8;}.cls-10,.cls-9{fill:#6466ae;}.cls-10{mix-blend-mode:multiply;}.cls-11{fill:#868686;}.cls-12{fill:url(#Silver);}.cls-14{fill:#ececec;}.cls-15{fill:url(#Silver-2);}.cls-16{fill:url(#Silver-3);}.cls-17{font-size:127.58px;font-family:Roboto-Bold, Roboto;}.cls-17,.cls-18{font-weight:700;}.cls-18{font-size:80.34px;fill:#231f20;font-family:Roboto-BoldItalic, Roboto;font-style:italic;letter-spacing:-0.04em;}.cls-19{letter-spacing:0em;}</style><linearGradient id="linear-gradient" x1="449.08" y1="222.37" x2="481.37" y2="222.37" gradientTransform="matrix(0.8, -0.6, 0.6, 0.8, -304.9, 608.04)" gradientUnits="userSpaceOnUse"><stop offset="0" stop-color="#fff"/><stop offset="0" stop-color="#fffdf7"/><stop offset="0.49" stop-color="#fedd7d"/></linearGradient><linearGradient id="Bronze" x1="449.08" y1="222.37" x2="481.37" y2="222.37" gradientTransform="matrix(0.8, -0.6, 0.6, 0.8, -304.9, 608.04)" gradientUnits="userSpaceOnUse"><stop offset="0.01" stop-color="#401617"/><stop offset="0.08" stop-color="#6b4c2d"/><stop offset="0.38" stop-color="#a58a55"/><stop offset="0.56" stop-color="#e5d4b5"/><stop offset="0.8" stop-color="#987a59"/><stop offset="0.8" stop-color="#967857"/><stop offset="0.96" stop-color="#814f2f"/></linearGradient><linearGradient id="Silver" x1="447.9" y1="-45.42" x2="483.15" y2="-45.42" gradientTransform="matrix(0.8, -0.6, 0.6, 0.8, -186.7, 687.73)" gradientUnits="userSpaceOnUse"><stop offset="0" stop-color="#e5e2df"/><stop offset="0" stop-color="#ded9d6"/><stop offset="0.06" stop-color="#cfcac9"/><stop offset="0.18" stop-color="#a8a4a7"/><stop offset="0.26" stop-color="#8b878d"/><stop offset="0.52" stop-color="#f3f4f4"/><stop offset="0.58" stop-color="#e5e5e6"/><stop offset="0.7" stop-color="#c0bec0"/><stop offset="0.86" stop-color="#858085"/><stop offset="0.88" stop-color="#807b80"/><stop offset="1" stop-color="#d1d3d4"/><stop offset="1" stop-color="#a7a9ac"/></linearGradient><linearGradient id="Silver-2" x1="445.65" y1="-60.78" x2="485.57" y2="-60.78" xlink:href="#Silver"/><linearGradient id="Silver-3" x1="445.65" y1="-31.28" x2="485.57" y2="-31.28" xlink:href="#Silver"/></defs><title>mylogo</title><g class="cls-1"><g id="Layer_1" data-name="Layer 1"><rect class="cls-2" x="88.91" y="104.5" width="658.02" height="383.56"/><polygon class="cls-2" points="197.95 79.92 406.96 6.62 408.25 10.3 409.53 6.62 618.54 79.92 615.97 87.3 408.25 14.45 200.53 87.3 197.95 79.92"/><rect class="cls-3" x="88.91" y="77.41" width="658.02" height="27.09"/><path class="cls-4" d="M526.45,100.29A10.3,10.3,0,1,0,516.14,90,10.32,10.32,0,0,0,526.45,100.29Z" transform="translate(-118.2 -79.69)"/><polygon class="cls-5" points="156.81 473.48 190.88 516.91 231.42 543.12 229.94 538.92 215.08 496.81 181.86 454.46 156.81 473.48"/><polygon class="cls-6" points="156.81 473.48 190.88 516.91 231.42 543.12 229.94 538.92 215.08 496.81 181.86 454.46 156.81 473.48"/><path id="path3990" class="cls-7" d="M343.75,605.34l-4.83,3.72-4.82,3.72L350,623.59Z" transform="translate(-118.2 -79.69)"/><path id="path4288" class="cls-8" d="M338.87,609.11l-3.08,2.64,14.42,11.67Z" transform="translate(-118.2 -79.69)"/><path class="cls-9" d="M335.09,579l-161-212.05-25.53,19.38,161,212.06C314,604.14,339.5,584.76,335.09,579Z" transform="translate(-118.2 -79.69)"/><path class="cls-10" d="M316.38,593.17l-161-212.06-6.81,5.17,161,212.06C314,604.14,320.78,599,316.38,593.17Z" transform="translate(-118.2 -79.69)"/><path class="cls-10" d="M335.09,579l-161-212.05-4.32,3.27,161,212.06C335.18,588,339.5,584.76,335.09,579Z" transform="translate(-118.2 -79.69)"/><path class="cls-11" d="M187.36,381.42l-28-36.8c-6.66-8.77-34.73,12.55-28.07,21.32l27.94,36.8.56-.42c-1.07-8.81,18.77-23.88,27-20.48Z" transform="translate(-118.2 -79.69)"/><path class="cls-9" d="M152.75,380.14l14.59-11.09c3.09-2.34,3.1-7.58,0-11.64l-21.66-28.53c-8.41-11.07-34.24,8.54-25.83,19.61L141.53,377C144.61,381.08,149.66,382.48,152.75,380.14Z" transform="translate(-118.2 -79.69)"/><path class="cls-12" d="M186.78,380.66l-27.46-36.15c-6.54-8.62-34.61,12.69-28.07,21.32L158.71,402l.55-.42c-1-8.7,18.85-23.77,27-20.48Z" transform="translate(-118.2 -79.69)"/><path class="cls-13" d="M329.7,583a.35.35,0,0,0,.46.12.35.35,0,0,0,0-.47L178.42,382.88a.3.3,0,1,0-.46.35Z" transform="translate(-118.2 -79.69)"/><path class="cls-13" d="M314.83,594.34a.3.3,0,1,0,.47-.35L163.55,394.17a.3.3,0,1,0-.46.35Z" transform="translate(-118.2 -79.69)"/><path class="cls-14" d="M164.65,350.25l-1.87-2.47c-6.55-8.62-35.7,13.52-29.15,22.14l1.88,2.47.57-.43c-.85-8.81,19.75-24.46,28-21.27Z" transform="translate(-118.2 -79.69)"/><path class="cls-11" d="M165.54,351.42,163.66,349c-6.55-8.63-35.7,13.51-29.15,22.13l1.88,2.47.57-.43c-.85-8.81,19.75-24.45,28-21.27Z" transform="translate(-118.2 -79.69)"/><path class="cls-15" d="M165.54,351.42l-2.32-3.06c-6.55-8.62-35.7,13.52-29.15,22.14l2.32,3.05.13-1c-.85-8.81,19.75-24.46,28-21.27Z" transform="translate(-118.2 -79.69)"/><path class="cls-14" d="M182.49,373.74l-1.87-2.47c-6.55-8.62-35.7,13.52-29.15,22.14l1.87,2.47.58-.44c-.86-8.8,19.74-24.45,28-21.26Z" transform="translate(-118.2 -79.69)"/><path class="cls-11" d="M183.37,374.9l-1.87-2.47c-6.55-8.62-35.7,13.52-29.15,22.14l1.88,2.47.57-.43c-.85-8.81,19.75-24.46,28-21.27Z" transform="translate(-118.2 -79.69)"/><path class="cls-16" d="M183.37,374.9l-2.31-3c-6.55-8.62-35.7,13.52-29.15,22.14l2.32,3.05.13-1c-.86-8.81,19.75-24.46,28-21.27Z" transform="translate(-118.2 -79.69)"/><text class="cls-17" transform="translate(295.76 287.21)">OCR</text><text class="cls-18" transform="translate(195.95 396.4)">T<tspan class="cls-19" x="45.11" y="0">ext Scanner</tspan></text></g></g></svg>