<svg id="Layer_1" data-name="Layer 1" xmlns="http://www.w3.org/2000/svg" xmlns:xlink="http://www.w3.org/1999/xlink" viewBox="0 0 1147.64 758.25"><defs><style>.cls-1{fill:#6c63ff;opacity:0.5;}.cls-1,.cls-12,.cls-14{isolation:isolate;}.cls-2{fill:url(#linear-gradient);}.cls-3{fill:#535461;}.cls-4{fill:#ededf4;}.cls-5{fill:#fa595f;}.cls-6{fill:#ffc74c;}.cls-7{fill:#85d459;}.cls-8{fill:#fff;}.cls-10,.cls-11,.cls-15,.cls-26,.cls-9{fill:none;stroke-miterlimit:10;}.cls-10,.cls-11,.cls-9{stroke:#6c63ff;}.cls-10{stroke-dasharray:11.69 11.69;}.cls-11{stroke-dasharray:11.79 11.79;}.cls-12,.cls-13{fill:#ea4c89;}.cls-12{opacity:0.66;}.cls-14,.cls-16{opacity:0.1;}.cls-15,.cls-26{stroke:#535461;}.cls-17{fill:url(#linear-gradient-2);}.cls-18{fill:url(#linear-gradient-3);}.cls-19{fill:url(#linear-gradient-4);}.cls-20{fill:#f7bbc3;}.cls-21{fill:#270f4c;}.cls-22{fill:#2f2e41;}.cls-23{fill:#d39999;}.cls-24{fill:#ffa000;}.cls-25{fill:#74585e;}.cls-26{stroke-width:2px;}.cls-27{fill:#e3e3e5;}</style><linearGradient id="linear-gradient" x1="315.85" y1="1607.95" x2="315.85" y2="2204" gradientTransform="matrix(1, 0, 0, -1, 183.64, 2204)" gradientUnits="userSpaceOnUse"><stop offset="0" stop-color="gray" stop-opacity="0.25"/><stop offset="0.54" stop-color="gray" stop-opacity="0.12"/><stop offset="1" stop-color="gray" stop-opacity="0.1"/></linearGradient><linearGradient id="linear-gradient-2" x1="870.33" y1="1720.64" x2="870.33" y2="1720.94" gradientTransform="matrix(1, 0, 0, -1, 431, 2253.25)" xlink:href="#linear-gradient"/><linearGradient id="linear-gradient-3" x1="651.28" y1="1907.2" x2="651.28" y2="2118.15" xlink:href="#linear-gradient"/><linearGradient id="linear-gradient-4" x1="783.9" y1="1305.31" x2="783.9" y2="1786.27" gradientTransform="matrix(1, 0, 0, -1, 431, 2253.25)" xlink:href="#linear-gradient"/></defs><title>upload_image</title><path class="cls-1" d="M506.37,683.36c-28.12,1.23-58.15,7.08-77.73,27.3-32.65,33.69-19,94.93,18.59,123.05s89.53,29,135,17.32c24.44-6.28,49.61-15.87,74.18-10.11,31,7.26,52.51,37.11,83.21,45.47,41.24,11.27,80.71-19,120.44-34.91,67.83-27.14,151.25-9.32,202.07,43.16,14.19,14.64,26.35,32,44.07,42,17.92,10.19,39.38,11.73,60,11.57,61.9-.49,122.84-14.18,183.22-27.8,38.34-8.58,77.39-17.56,111.29-37.45s62.45-52.91,66.87-92c.78-6.81.75-14-2.25-20.17-5-10.21-16.58-15-27.22-19C1466.51,740,1431,728.16,1400,741.56c-8.13,3.52-15.68,8.7-24.36,10.5-24.79,5.09-45-18-64.34-34.34-59.75-50.63-146.83-46-223.09-64.12-88.8-21-183.09-38.22-275.42-24.84-46.45,6.73-82.17,38.28-126.55,50.47C627.71,695.3,565.93,680.82,506.37,683.36Z" transform="translate(-380.36 -190)"/><polygon class="cls-2" points="158.55 0 158.55 33.01 158.55 596.05 840.45 596.05 840.45 33.01 840.45 0 158.55 0"/><rect class="cls-3" x="163.45" width="673.31" height="19.62"/><rect class="cls-4" x="163.45" y="18.4" width="673.31" height="564.16"/><circle class="cls-5" cx="175.78" cy="8.96" r="3.27"/><circle class="cls-6" cx="185.58" cy="8.96" r="3.27"/><circle class="cls-7" cx="195.39" cy="8.96" r="3.27"/><rect class="cls-8" x="241.94" y="51.51" width="516.33" height="202.36"/><polyline class="cls-9" points="758.89 247.74 758.89 254.49 752.14 254.49"/><line class="cls-10" x1="736.2" y1="254.49" x2="256.66" y2="254.49"/><polyline class="cls-9" points="249.3 254.49 241.33 254.49 241.33 247.74"/><line class="cls-11" x1="241.33" y1="231.8" x2="241.33" y2="66.23"/><polyline class="cls-9" points="241.33 58.87 241.33 50.9 249.3 50.9"/><line class="cls-10" x1="264.02" y1="50.9" x2="743.56" y2="50.9"/><polyline class="cls-9" points="752.14 50.9 758.89 50.9 758.89 58.87"/><line class="cls-11" x1="758.89" y1="73.59" x2="758.89" y2="239.16"/><rect class="cls-8" x="368.27" y="282.08" width="263.68" height="11.04"/><rect class="cls-8" x="443.08" y="304.16" width="112.83" height="11.04"/><path class="cls-12" d="M880.36,397.27a54.49,54.49,0,1,0-54.49-54.49h0a54.48,54.48,0,0,0,54.46,54.49Zm0-98.12a43.95,43.95,0,1,1-43.94,44,43.94,43.94,0,0,1,43.94-44Zm4.35,71.14h-8.45a2.61,2.61,0,0,1-2.54-2.65V342.08h-14a2.69,2.69,0,0,1-2.44-1.41,2.74,2.74,0,0,1,.46-3.11l20.92-21.82a2.45,2.45,0,0,1,3.53,0l20.89,21.79a2.71,2.71,0,0,1,.78,2.2,2.61,2.61,0,0,1-2.54,2.35H887.21v25.56a2.62,2.62,0,0,1-2.49,2.65Z" transform="translate(-380.36 -190)"/><path class="cls-13" d="M564.47,622.94C578,672.28,520.4,812.83,520.4,812.83s-121.1-91.68-134.59-141a92.61,92.61,0,1,1,178.35-50C564.27,622.2,564.37,622.57,564.47,622.94Z" transform="translate(-380.36 -190)"/><path class="cls-14" d="M562.47,622.94C576,672.28,518.4,812.83,518.4,812.83s-121.1-91.68-134.59-141a92.61,92.61,0,1,1,178.35-50C562.27,622.2,562.37,622.57,562.47,622.94Z" transform="translate(-380.36 -190)"/><path class="cls-15" d="M451.18,558.36s75.39,113.81,69.7,254.8" transform="translate(-380.36 -190)"/><path class="cls-13" d="M583.71,713.15S515.35,676,524,813.23c0,0,57-2,77.26-48.55a40.34,40.34,0,0,0-16.56-51Z" transform="translate(-380.36 -190)"/><path class="cls-15" d="M584.86,713.39S576,784.64,524,813.23" transform="translate(-380.36 -190)"/><g class="cls-16"><path class="cls-17" d="M1301.22,532.61a2.1,2.1,0,0,0,.22-.31Z" transform="translate(-380.36 -190)"/></g><polygon class="cls-18" points="573.08 85.85 573.08 296.8 628.88 296.8 658.4 296.8 673.5 296.8 687.25 296.8 707.14 296.8 711.54 296.8 754.15 296.8 769.81 296.8 781.56 296.8 789.23 296.8 789.45 296.8 789.84 296.8 795.48 296.8 807.22 296.8 811.78 296.8 812.27 296.8 812.38 296.8 812.67 296.8 813.27 296.8 822.88 296.8 823.51 296.8 823.66 296.8 842.28 296.8 842.87 296.8 843.61 296.8 865.51 296.8 872.04 296.8 887.7 296.8 922.07 296.8 961.21 296.8 961.21 296.8 968.67 296.8 970.04 296.8 971.33 296.8 971.33 296.8 979.21 296.8 980.35 296.8 995.37 296.8 1015.15 296.8 1024.71 296.8 1044.3 296.8 1096.77 296.8 1096.77 85.85 573.08 85.85"/><path class="cls-19" d="M1333.39,546.6a26.2,26.2,0,0,0-2.47-11l-15.34-36.71s-.56.76-1.51,1.81c-1.12-9.37-5.39-27.24-21.51-28.39-21.92-1.59-29.62,9.58-25.2,10.64s23,8.52,23,8.52l8.64,14.18-.47-.34.33,1.29-.33-.23.33,1.29-.33-.23,8.35,34.43-17,15.57s-16.44,8-24.69,7.4a29.27,29.27,0,0,0-4.68.1l.62-.41,5.43-3.6c4.2-2.78,8.58-5.78,10.68-10.27v1.54c.18-.32.35-.65.51-1,2.19-4.68,1.43-10.08,1.54-15.22a77.28,77.28,0,0,0,.15-9.38,27,27,0,0,0-2.53-8.57,31.53,31.53,0,0,0-11.37-13.46,23.1,23.1,0,0,0-17.34-3.27,11.86,11.86,0,0,1-3,.52c-1.93,0-3.6-1.23-5.37-2a11.23,11.23,0,0,0-12.9,3.67c-1.22,1.61-1.84,3.53-3.08,5.1-1.84,2.34-4.81,3.81-6.05,6.49l-.12.29a7.07,7.07,0,0,0-.43.76c-1.22,2.64-.41,5.71-.67,8.56a23.2,23.2,0,0,1-2.45,7.34,5.67,5.67,0,0,0,1.46-.72,25.19,25.19,0,0,0-.36,20.12,44.67,44.67,0,0,1-4.79,14.88l-.16.15h-.07l-.44.34h0l-.49.33c.56-.87,1.21-1.78,1.94-2.73-1.08,1.3-6.12,6.25-16.62.23-12-6.85-40.19-6.85-40.19-6.85l-28.15-12.62c.52-8.88,2.9-43.57,8.57-45.42a16.48,16.48,0,0,1-1.68.55h0l.14-.22.13-.19.14-.19.14-.17.14-.14.15-.15.13-.11.16-.12.13-.09.17-.08.23-.1s-.59.23-1.55.5l.5-.83a2.46,2.46,0,0,1,1-.74l-.74.27,7.27-11.87s18.46-7.34,22.82-8.44-3.26-12.14-25-10.55c-14.68,1.08-19.45,16.15-21,25.8-.06-.16-.13-.31-.19-.48l-21.64,56a2.67,2.67,0,0,0,.14.71l-.14.34a2.67,2.67,0,0,0,.14.71l-.14.34s1.63,12.14,13.59,16.89L1155,594.39s19.58,11.6,19.58,40.63,3.8,74.91,3.8,74.91l2.12,1.22c-3.4,9.48-10,26.42-14.62,29.37-6.53,4.22-22.83,40.62-22.83,40.62h-.2l-.48,1.23h2.45l-13.33,25.89s-4.35,11.63,0,19S1134.8,850,1134.8,850s8.7,24.84,15.78,36.48c3.59,5.91,4.24,13.17,4,18.9l-14.89,24.46s-7.08,6.34-12.52,5.28c-2.55-.49-5.1,2.72-5.71,6v1.39h0a2.83,2.83,0,0,1,1.23.33V943l-1.23.26v.12l1.23.26v.11l0,.3h0l1.18.35v.08l-.81.26.08.11.17.22.1.11.21.24.09.08.33.31h0l.32.26.12.08.27.19.14.09.3.18.16.08.38.07h.1l.51,1.23h.15l.42-.73.2.06.41.12.22.06.45-.74h.21l.7,1h0l.69.24h7.87l1.14-.15c22.12-3.15,48-14.67,48-14.67h0a44.38,44.38,0,0,0,.18-4.62c.08-6.28-1-18.77-10.17-22.26h-.47c-2.26-7-4.1-15.8-2.49-23.31,3.23-15.19-9.18-42.95-9.18-52.4,0-2.09-2.7-6.8,2.7-13.62,2.51-3.17,8.3-8.62,13.71-14.58a27.29,27.29,0,0,1-1.85,2.43,5.4,5.4,0,0,0,.72.14c-.23.29-.47.6-.72.9,0,0,7.18,2.32,13-7.93.35-.62.71-1.31,1-2,5.93-12.58,21-30.39,28.59-29.34,7,1,22.66,14.41,25.9,23.89a11.57,11.57,0,0,1,.54,2.31c1.08,9.43,15.1,10.48,15.1,10.48l-.85-1.14.54.06a155.92,155.92,0,0,1,8.42,14.7c4.32,9.43,3.78,15.72,3.78,15.72-11.87,24.1-7.56,38.77-7.56,53.47a65.84,65.84,0,0,1-1.21,11.88c-7.7,4.75-9.06,25.85-9.06,25.85l.07.08v.54c.52,0,16.53,16.59,37.78,18.69h9.35l.35,1.23h.84l.35-.08.25-.06.33-.08.22-.07.32-.09.21-.08.31-.11.2-.07.29-.13.18-.07.29-.12.16-.08.29-.13.14-.08.28-.15.12-.07.26-.16.11-.08.25-.17.1-.07.23-.19.09-.06.22-.2.07-.06.23-.21h0l.2-.22h0l.2-.23h0l.19-.25h0l.16-.26h0l.15-.27h0l.13-.29h0a4.63,4.63,0,0,0,.4-2.46,4.55,4.55,0,0,0-4-5.05l-.55,0c-6.58,0-9.88-7.4-9.88-7.4l-11.6-27.43-.28-.07c.49-2.7.92-5.33,1.11-7.11.33-3.29,7-19.65,12-31.62a74.88,74.88,0,0,0,5.59-22.47,63.79,63.79,0,0,1,2.13-11.88,25,25,0,0,0-.41-14.81,56.36,56.36,0,0,1-2.64-12.66c-.58-6.58-3.28-13.23-5.95-18.39h.24l-.36-1.16.36.09s-11-35.65-16.44-40.44c-4-3.47-13.12-19.74-18.06-29.93a47.29,47.29,0,0,0,2.72-4.12l-.16-.8.16-.26-.16-.8.16-.26s-5.57-27.6-5.78-47.42c.06-6.37.77-11.74,2.47-14.81,0,0,2.2-33.52,19.75-39.9l45.51-40.37s4.87-3,4.63-10.85C1333.4,547.31,1333.4,547,1333.39,546.6ZM1208.87,568h0l.49-.74Zm38.91,1.23s-.08.5-.3,1.34a17.56,17.56,0,0,1-1.62-3.85,28,28,0,0,0,4.2-1.3,7.32,7.32,0,0,0,3.14,2.08,52.55,52.55,0,0,0-5.42,1.74Zm11,222.73c1.23,1.83,2.45,3.78,3.68,5.77-1.16-1.68-2.59-3.82-3.68-5.75Z" transform="translate(-380.36 -190)"/><rect class="cls-8" x="575.54" y="89.53" width="516.33" height="202.36"/><path class="cls-20" d="M1150.64,775.41,1135,806.68s-4.17,11.47,0,18.77,3.13,22.41,3.13,22.41,8.34,24.53,15.12,36,2.62,28.2,2.62,28.2l27.1,3.13s-10.42-20.33-7.36-35.45-8.87-42.73-8.87-52.14c0-2.09-2.61-6.78,2.62-13.55s25-24,24.53-33.89Z" transform="translate(-380.36 -190)"/><path class="cls-20" d="M1288.84,768.11s10,13.86,11.17,27.35a56.4,56.4,0,0,0,2.45,12.4,25.2,25.2,0,0,1,.39,14.47,64.76,64.76,0,0,0-2,11.64A74.92,74.92,0,0,1,1295.5,856c-4.78,11.74-11,27.76-11.41,31-.53,5.22-3.13,17.73-3.13,17.73l-20.85,7.82s6.26-15.12,6.26-29.72-4.17-29.18,7.36-53.17c0,0,.52-6.26-3.68-15.64s-20.34-33.89-20.34-33.89Z" transform="translate(-380.36 -190)"/><path class="cls-14" d="M1255.08,786.7c-1.71,1.87,7.13,13.74,7.13,13.74s-13.55-1-14.59-10.43a11.9,11.9,0,0,0-.53-2.29c-3.14-9.43-18.3-22.81-25-23.77-7.36-1-21.89,16.68-27.63,29.19-.33.72-.67,1.39-1,2-5.6,10.21-12.55,7.9-12.55,7.9,3.68-4.54,4.44-8.13,3.29-11-4.56-11.24-38.73-10.91-38.73-10.91s15.64-36,21.89-40.14,16.17-35.46,16.17-35.46,74.55-8.34,75.07-4.7,15.12,32.33,20.33,37,15.64,39.65,15.64,39.65c-17.72-5.22-37.27,7.55-39.36,9.12Z" transform="translate(-380.36 -190)"/><path class="cls-21" d="M1255.08,785.66c-1.71,1.86,7.13,13.74,7.13,13.74s-13.55-1-14.59-10.43a11.9,11.9,0,0,0-.53-2.29c-3.14-9.43-18.3-22.81-25-23.77-7.36-1-21.89,16.68-27.63,29.19-.33.72-.67,1.38-1,2-5.6,10.2-12.52,7.89-12.52,7.89,3.68-4.54,4.44-8.14,3.29-11-4.57-11.25-38.73-10.92-38.73-10.92s15.63-36,21.89-40.14,16.16-35.45,16.16-35.45,74.56-8.34,75.07-4.7,15.12,32.33,20.34,37,15.63,39.63,15.63,39.63c-17.72-5.21-37.27,7.55-39.35,9.12Z" transform="translate(-380.36 -190)"/><path class="cls-14" d="M1157.17,902.36l-14.34,24.24s-6.78,6.26-12,5.21-10.42,14.6,11,11.47,46.39-14.59,46.39-14.59,2.34-21.12-9.64-25.76Z" transform="translate(-380.36 -190)"/><path class="cls-14" d="M1283.33,894l11.21,26.33s3.13,7.36,9.38,7.36,8.34,13-12,11-35.46-18.25-35.46-18.25,1.57-25,11-26.59A40,40,0,0,1,1283.33,894Z" transform="translate(-380.36 -190)"/><path class="cls-22" d="M1157.17,903.4l-14.34,24.24s-6.78,6.26-12,5.22-10.42,14.59,11,11.46,46.39-14.59,46.39-14.59,2.34-21.12-9.64-25.76Z" transform="translate(-380.36 -190)"/><path class="cls-22" d="M1283.33,895.06l11.21,26.33s3.13,7.36,9.38,7.36,8.34,13-12,11-35.46-18.25-35.46-18.25,1.57-25,11-26.59A40,40,0,0,1,1283.33,895.06Z" transform="translate(-380.36 -190)"/><g class="cls-16"><path d="M1256,699.81c.52,3.68,15.12,32.33,20.33,37,4.78,4.31,14,34.12,15.44,38.95.94.19,1.88.4,2.81.67,0,0-10.43-34.93-15.64-39.63s-19.81-33.37-20.33-37c-.1-.73-3.15-1-8-.91C1253.88,699,1255.87,699.23,1256,699.81Z" transform="translate(-380.36 -190)"/><path d="M1219.46,762.9c-7.36-1-21.9,16.68-27.64,29.19-.33.72-.66,1.38-1,2-3.24,5.88-6.91,7.6-9.44,8,1.68.3,7.35.56,12-8,.34-.63.68-1.29,1-2,5.26-11.48,18-27.33,25.67-29.07Z" transform="translate(-380.36 -190)"/><path d="M1255.08,785.66l.09-.09c1.68-1.22,14.72-9.81,29-10.34-15.27-.52-29.83,9-31.62,10.34l-.09.09c-1.51,1.64,5.14,11,6.77,13.25a22.79,22.79,0,0,0,3,.47S1253.37,787.51,1255.08,785.66Z" transform="translate(-380.36 -190)"/></g><path class="cls-20" d="M1120.92,503.27s0-31.8,20.85-33.37,28.21,9.38,24,10.43-21.89,8.34-21.89,8.34L1132.39,508Z" transform="translate(-380.36 -190)"/><path class="cls-20" d="M1309.69,510.57s0-31.8-20.85-33.37-28.21,9.38-24,10.42,21.89,8.34,21.89,8.34l11.47,19.3Z" transform="translate(-380.36 -190)"/><path class="cls-20" d="M1215.25,543.41s1.57,20.85-11.47,32.85,30.28,27,30.28,27l19.3-22.93s-15.64-9.38-7.36-25.55Z" transform="translate(-380.36 -190)"/><path class="cls-14" d="M1211.12,567.92s-4.7,7.36-16.17.53-38.57-6.84-38.57-6.84l-27.1-12.51s2.08-44.83,8.34-46.92c0,0-12.51,5.21-16.17-5.21l-20.85,55.26s1.57,12,13,16.68l43.27,26.59s18.76,11.47,18.76,40.14,3.68,74,3.68,74,60.43,36.54,85-6.21c0,0-9.91-50.56-3.13-63.08,0,0,2.08-32.85,18.76-39.1l43.24-39.67s8.34-5.21,2.08-20.33l-14.59-36s-8.87,12.51-16.17,6.25l8.34,35.46-16.68,15.64s-15.63,7.82-23.46,7.36-16.68,3.12-16.68,3.12-3.68,20.85-20.33,18.77C1225.71,591.9,1193.91,590.33,1211.12,567.92Z" transform="translate(-380.36 -190)"/><path class="cls-14" d="M1211.12,565.83s-4.7,7.36-16.17.53-38.57-6.79-38.57-6.79l-27.1-12.51s2.08-44.84,8.34-46.93c0,0-12.51,5.22-16.17-5.21l-20.85,55.26s1.57,12,13,16.68l43.26,26.64s18.76,11.47,18.76,40.14,3.68,74,3.68,74,60.44,36.45,85-6.24c0,0-9.91-50.57-3.13-63.09,0,0,2.08-32.84,18.76-39.1l43.24-39.67s8.34-5.22,2.08-20.34l-14.59-36s-8.87,12.51-16.17,6.26l8.34,35.45-16.68,15.64s-15.63,7.82-23.46,7.36-16.68,3.12-16.68,3.12-3.68,20.85-20.33,18.77C1225.71,589.82,1193.91,588.24,1211.12,565.83Z" transform="translate(-380.36 -190)"/><path class="cls-23" d="M1211.09,566.91l-.21.28Z" transform="translate(-380.36 -190)"/><path class="cls-24" d="M1323.18,560.62l-43.27,39.63c-16.68,6.25-18.77,39.1-18.77,39.1-6.78,12.51,3.13,63.08,3.13,63.08-24.53,42.76-85,6.26-85,6.26s-.12-1.5-.32-4.13c-.17-2.31-.4-5.5-.66-9.29-.34-4.9-.74-10.83-1.1-17.25-.83-14-1.57-30.41-1.57-43.36,0-28.67-18.77-40.14-18.77-40.14l-32.38-20-10.81-6.64c-11.47-4.7-13-16.68-13-16.68L1121.49,496c3.41,9.74,14.56,5.83,16,5.28-6.13,2.77-8.18,46.86-8.18,46.86l27.11,12.51s27.1,0,38.58,6.78c9.81,5.77,14.61,1.35,15.83-.11-16.48,22.08,14.93,23.56,14.93,23.56,16.68,2.09,20.33-18.76,20.33-18.76s8.87-3.68,16.68-3.13,23.47-7.36,23.47-7.36L1302.92,546l-8.34-35.45c7.35,6.25,16.16-6.26,16.16-6.26l14.59,36C1331.55,555.4,1323.18,560.62,1323.18,560.62Z" transform="translate(-380.36 -190)"/><path class="cls-14" d="M1215.25,545.5a50.32,50.32,0,0,1-.5,9.81,25.54,25.54,0,0,0,29.43,15.37A18.43,18.43,0,0,1,1246,557Z" transform="translate(-380.36 -190)"/><circle class="cls-20" cx="858.13" cy="353.67" r="25.55"/><path class="cls-14" d="M1238.07,529.14c-.22,2.59-.4,5.35.79,7.65a13.84,13.84,0,0,0,2.45,3.14l5.35,5.51a14.11,14.11,0,0,1,3.81,5.43c1.55,5.15-3,10.27-2.87,15.65a7,7,0,0,0,7.9,2.92,13.49,13.49,0,0,0,3.3-1.83l5.16-3.53c4-2.72,8.16-5.67,10.16-10.06,2.1-4.62,1.38-10,1.48-15a77.68,77.68,0,0,0,.14-9.28,27.19,27.19,0,0,0-2.46-8.51,30.8,30.8,0,0,0-10.91-13.28,21.65,21.65,0,0,0-16.63-3.23,10.85,10.85,0,0,1-2.82.5c-1.85,0-3.45-1.22-5.15-1.95a10.62,10.62,0,0,0-12.38,3.57c-1.13,1.6-1.78,3.5-3,5-1.76,2.31-4.61,3.77-5.8,6.41s-.4,5.65-.65,8.49a23.41,23.41,0,0,1-2.32,7.3c2.89-1,4.3-4.17,6.13-6.6a16.3,16.3,0,0,1,12-6.06c1.59-.07,4.55-.19,5.81,1C1239.26,523.93,1238.25,527.27,1238.07,529.14Z" transform="translate(-380.36 -190)"/><path class="cls-25" d="M1238.55,528.1c-.22,2.58-.4,5.34.79,7.65a13.84,13.84,0,0,0,2.45,3.14l5.35,5.51a14.11,14.11,0,0,1,3.81,5.43c1.55,5.15-3,10.26-2.87,15.65a7,7,0,0,0,7.9,2.92,13.41,13.41,0,0,0,3.42-1.88l5.16-3.53c4-2.72,8.16-5.67,10.16-10.06,2.1-4.62,1.39-10,1.48-15a77.68,77.68,0,0,0,.14-9.28,27.44,27.44,0,0,0-2.45-8.51A31,31,0,0,0,1263,506.8a21.68,21.68,0,0,0-16.63-3.22,10.77,10.77,0,0,1-2.82.5c-1.85,0-3.45-1.22-5.15-1.95A10.6,10.6,0,0,0,1226,505.7c-1.13,1.6-1.78,3.5-3,5-1.76,2.31-4.61,3.77-5.8,6.4s-.4,5.66-.65,8.5a23.41,23.41,0,0,1-2.32,7.3c2.89-1,4.3-4.17,6.13-6.6a16.3,16.3,0,0,1,12-6.06c1.59-.07,4.55-.19,5.81,1C1239.78,522.88,1238.76,526.19,1238.55,528.1Z" transform="translate(-380.36 -190)"/><g class="cls-16"><path d="M1210.91,567.16c.15-.19.22-.3.22-.3Z" transform="translate(-380.36 -190)"/><path d="M1299.17,512.31a6.69,6.69,0,0,1-4.64-1.74l.5,2.11A7.31,7.31,0,0,0,1299.17,512.31Z" transform="translate(-380.36 -190)"/><path d="M1206.76,569.87c-13.06,20,16.35,21.51,16.35,21.51a16.14,16.14,0,0,0,6.7-.48,17.49,17.49,0,0,1-4.09,0s-31.52-1.56-14.81-23.69A8.55,8.55,0,0,1,1206.76,569.87Z" transform="translate(-380.36 -190)"/><path d="M1260.13,569.48a22,22,0,0,0,6.26-.75,16.79,16.79,0,0,1-3.68.23,34.13,34.13,0,0,0-9.65,1A30.44,30.44,0,0,1,1260.13,569.48Z" transform="translate(-380.36 -190)"/><path d="M1325.29,540.29l-14.6-36a29.44,29.44,0,0,1-1.89,2.29l13.89,34.15c6.25,15.13-2.09,20.34-2.09,20.34l-43.27,39.63c-16.68,6.25-18.76,39.09-18.76,39.09-6.78,12.51,3.12,63.09,3.12,63.09-6.57,11.47-15.73,17.17-25.63,19.53,10.88-1.86,21.08-7.58,28.21-20.06,0,0-9.91-50.56-3.13-63.08,0,0,2.09-32.85,18.77-39.1l43.27-39.58S1331.55,555.4,1325.29,540.29Z" transform="translate(-380.36 -190)"/><path d="M1137.62,501.19a19.09,19.09,0,0,1-3.3.94c-5.72,5-7.64,46.5-7.64,46.5l27.1,12.51s27.1,0,38.58,6.78c5.62,3.32,9.61,3.26,12.27,2.34-2.45.15-5.61-.5-9.6-2.86-11.47-6.78-38.59-6.78-38.59-6.78l-27.18-12.5S1131.35,503.27,1137.62,501.19Z" transform="translate(-380.36 -190)"/><path d="M1133.08,502.34c-4,.52-9.41-.06-11.62-6.36l-1.22,3.25C1123.65,504.07,1129.89,503.19,1133.08,502.34Z" transform="translate(-380.36 -190)"/></g><path class="cls-14" d="M1177.23,678c-.82-14-1.57-30.4-1.57-43.35,0-28.68-18.76-40.14-18.76-40.14l-32.41-20c18.89,4.91,44,13.36,46.28,23.31,3.68,16.16,10.42,17.72,7.82,45.37A313,313,0,0,0,1177.23,678Z" transform="translate(-380.36 -190)"/><path class="cls-14" d="M1182.14,717.8s4.69,14.6-8.34,24" transform="translate(-380.36 -190)"/><path class="cls-14" d="M1255.17,717.8s1.57,11,7.82,15.12" transform="translate(-380.36 -190)"/><path class="cls-14" d="M1188.18,927.63s-25,11.47-46.39,14.6c-10.85,1.58-14.84-1.66-15.47-5.09-.71,4,2.45,9.08,15.47,7.17,21.37-3.13,46.39-14.59,46.39-14.59a43.36,43.36,0,0,0,.17-5.22C1188.27,926.42,1188.18,927.63,1188.18,927.63Z" transform="translate(-380.36 -190)"/><path class="cls-14" d="M1292.44,938.58c-20.33-2.08-35.45-18.25-35.45-18.25s.77-12.33,4.47-20.22c-4.16,7.79-5,21.27-5,21.27s15.12,16.16,35.45,18.25c10.39,1.06,14.93-1.82,16-4.91C1306.25,937.38,1301.64,939.53,1292.44,938.58Z" transform="translate(-380.36 -190)"/><rect class="cls-8" x="622.14" y="407.18" width="131.23" height="87.08"/><path class="cls-26" d="M1449.5,818.41s-23-78,4.3-135.46a123.25,123.25,0,0,0,10-77.27,207,207,0,0,0-11-36.29" transform="translate(-380.36 -190)"/><path class="cls-13" d="M1469.77,533c0,9.56-17.32,37.29-17.32,37.29s-17.32-27.73-17.32-37.29A17.37,17.37,0,0,1,1458,516.56,17.11,17.11,0,0,1,1469.77,533Z" transform="translate(-380.36 -190)"/><path class="cls-13" d="M1498.48,586c-5.2,8-34.8,21.89-34.8,21.89s.54-32.68,5.74-40.72A17.32,17.32,0,0,1,1498.48,586Z" transform="translate(-380.36 -190)"/><path class="cls-13" d="M1497.23,676.52c-8.58,4.3-41.1,1.34-41.1,1.34s17-28,25.51-32.26a17.32,17.32,0,1,1,16.29,30.57l-.7.35Z" transform="translate(-380.36 -190)"/><path class="cls-13" d="M1480.86,744.81c-7.69,5.69-40.28,8.25-40.28,8.25s12-30.41,19.69-36.09a17.32,17.32,0,0,1,21.13,27.44Z" transform="translate(-380.36 -190)"/><path class="cls-13" d="M1427.31,609.75c6.86,6.66,38.82,13.57,38.82,13.57s-7.83-31.74-14.72-38.42a17.32,17.32,0,0,0-24.13,24.84Z" transform="translate(-380.36 -190)"/><path class="cls-13" d="M1409.19,689.85c8.58,4.31,41.09,1.34,41.09,1.34s-17-28-25.51-32.26a17.32,17.32,0,0,0-15.58,30.92Z" transform="translate(-380.36 -190)"/><path class="cls-13" d="M1402.24,770.11c7.69,5.69,40.28,8.25,40.28,8.25s-12-30.41-19.68-36.09a17.32,17.32,0,0,0-20.6,27.84Z" transform="translate(-380.36 -190)"/><path class="cls-26" d="M1365.07,775.28s-14.45-49,2.71-85.16a77.52,77.52,0,0,0,6.27-48.6,130.68,130.68,0,0,0-6.88-22.82" transform="translate(-380.36 -190)"/><path class="cls-13" d="M1377.84,596c0,6-10.89,23.45-10.89,23.45S1356.06,602,1356.06,596a10.89,10.89,0,0,1,21.77,0Z" transform="translate(-380.36 -190)"/><path class="cls-13" d="M1395.84,629.18c-3.26,5-21.88,13.76-21.88,13.76s.35-20.56,3.61-25.6a10.89,10.89,0,0,1,18.63,11.29A6.49,6.49,0,0,1,1395.84,629.18Z" transform="translate(-380.36 -190)"/><path class="cls-13" d="M1395.05,686.09c-5.38,2.71-25.85.83-25.85.83s10.67-17.58,16-20.27a10.89,10.89,0,0,1,9.82,19.44Z" transform="translate(-380.36 -190)"/><path class="cls-13" d="M1384.76,729c-4.84,3.58-25.33,5.19-25.33,5.19s7.54-19.12,12.37-22.69a10.89,10.89,0,0,1,13,17.5Z" transform="translate(-380.36 -190)"/><path class="cls-13" d="M1350.8,644.1c4.32,4.2,24.41,8.59,24.41,8.59s-4.91-20-9.24-24.15a10.89,10.89,0,1,0-15.68,15.11c.16.17.34.34.51.5Z" transform="translate(-380.36 -190)"/><path class="cls-13" d="M1339.7,694.46c5.37,2.71,25.84.84,25.84.84s-10.67-17.58-16-20.28a10.89,10.89,0,0,0-9.81,19.44Z" transform="translate(-380.36 -190)"/><path class="cls-13" d="M1335.34,744.92c4.83,3.58,25.33,5.19,25.33,5.19s-7.54-19.12-12.38-22.69a10.89,10.89,0,1,0-13.46,17.12Z" transform="translate(-380.36 -190)"/><rect class="cls-27" x="603.64" y="111.69" width="474" height="7.38"/><rect class="cls-27" x="602.64" y="141.69" width="474" height="7.38"/><rect class="cls-27" x="602.64" y="166.69" width="474" height="7.38"/><rect class="cls-27" x="602.64" y="193.69" width="474" height="7.38"/><rect class="cls-27" x="603.64" y="223.69" width="474" height="7.38"/><rect class="cls-27" x="603.64" y="254.69" width="474" height="7.38"/></svg>